<svg id="Capa_1" data-name="Capa 1" xmlns="http://www.w3.org/2000/svg" viewBox="0 0 341.46 250.08"><defs><style>.cls-1,.cls-2{fill:#27213c;}.cls-2,.cls-4{font-size:50px;font-family:Moon2.0-Regular, "Moon 2.0";}.cls-3{letter-spacing:-0.03em;}.cls-4,.cls-5{fill:#fff;}.cls-6{fill:#e5a9a9;}.cls-7{fill:#ba274a;}.cls-8{fill:none;stroke:#000;stroke-linecap:round;stroke-linejoin:round;stroke-width:0.5px;}</style></defs><circle class="cls-1" cx="193.04" cy="128.79" r="110.94"/><text class="cls-2" transform="translate(19.3 112.13)">DO<tspan class="cls-3" x="68.65" y="0">L</tspan><tspan x="90.9" y="0">CE</tspan><tspan x="0" y="60">BELLA</tspan></text><text class="cls-4" transform="translate(17.81 110.34)">DO<tspan class="cls-3" x="68.65" y="0">L</tspan><tspan x="90.9" y="0">CE</tspan><tspan x="0" y="60">BELLA</tspan></text><path class="cls-1" d="M304.6,81.28c19.27,13.27,25,31.63,21.88,54-1.07,7.69-.12,15.65-.31,23.49-.16,6.5-3.61,9.89-10.23,9.89H297l1.55-5.21q8.43,0,16.86-.11c2.28,0,6-3.51,6.52-5.9,2.12-10.52-1.4-13.65-12-10.27-1.29.41-2.57.79-3.86,1.12l1.71-5.49c3.46-.71,6.92-1.53,10.4-2.36,1.42-.34,3.34-2.41,3.42-3.77.2-3.39.48-7.54-1.25-10-1.05-1.51-6-1.28-8.77-.41q-2.61.83-5.21,1.43l-.13-4.77c3-.66,5.94-1.47,8.93-2.44,4.44-1.44,7.24-2.62,6.85-7.87-.45-6.06-4.6-5.61-8.72-5.61h-8.84l-.52-5.57v-.21h12.75C310.79,95.08,306.28,90.7,302.14,86c-1.85-2.11-3.61-3.48-5.53-3.86l-4.12-6.19-.29-.22c2.23-2.68,3.18-8.23,2.64-11.91-1.45-9.88-12.33-17.89-22.21-17.82a12.26,12.26,0,0,0-8,2.77l-3.43-3.52c3.75-3.09,8.6-4.08,15.12-3.39,3.73.4,5.64,1.17,9.46,1.53l2.14.77c3.59.34,6.31-6.89,11.8-2.8-.22,1.62-3.43,5.47-5.23,7.58l1.17,3.28c1.38,8.23,2.75,13.63,4.53,21.77C300.81,76.65,302.45,79.8,304.6,81.28Z"/><path class="cls-5" d="M306.27,123a88.28,88.28,0,0,1-43.4-1.45c-8.56-2.35-19.1-1.64-27.66,1.08-17.4,5.51-33.58,2-49.85-3.07-1.9-.59-3.42-5.32-3.38-8.1,0-1.48,3.77-4.12,5.86-4.15,21.32-.31,42.64-.19,64-.19v0h61.53c4.12,0,8.27-.45,8.72,5.61.39,5.25-2.41,6.43-6.85,7.87C312.21,121.49,309.24,122.3,306.27,123Z"/><path class="cls-5" d="M306.1,148.32c1.29-.33,2.57-.71,3.86-1.12,10.55-3.38,14.07-.25,12,10.27-.48,2.39-4.24,5.88-6.52,5.9q-8.43.07-16.86.11c-36.8.21-73.59.11-110.39.18-4.83,0-7-1.86-6.63-6.73.21-3.18,0-6.38,0-11.39,5.06.79,8.83.9,12.29,2,14.09,4.48,27.82,3.73,42.2.32,9.37-2.22,20.11-2.63,29.39-.38C279.31,150.84,292.52,151.83,306.1,148.32Z"/><path class="cls-6" d="M306.4,127.73q2.6-.6,5.21-1.43c2.76-.87,7.72-1.1,8.77.41,1.73,2.45,1.45,6.6,1.25,10-.08,1.36-2,3.43-3.42,3.77-3.48.83-6.94,1.65-10.4,2.36-13.24,2.77-26.48,4.19-40.58.29-10.38-2.88-22.9-2.6-33.33.29-17.31,4.81-33.26,1.12-49.25-3.43-2.42-.68-2.71-8.83-4.54-15.55,6.33,1,10,1.23,13.49,2.32,14.38,4.58,28.46,3.7,43.07.24,8.65-2,18.55-2.55,27.09-.47C278.23,130,292.21,131.12,306.4,127.73Z"/><path class="cls-5" d="M296.61,82.13c1.92.38,3.68,1.75,5.53,3.86,4.14,4.71,8.65,9.09,14.58,15.27H196.48c3.79-2.41,5.5-3.85,7.46-4.7Q224,88,244.15,79.6c3.19-1.33,6-2.94,8.83,1.63,6.38,10.3,12.27,12.45,23.76,9.14a41.19,41.19,0,0,0,13.12-6C292.47,82.38,294.63,81.73,296.61,82.13Z"/><path class="cls-5" d="M307.81,142.83l-1.71,5.49c-13.58,3.51-26.79,2.52-40.67-.84-9.28-2.25-20-1.84-29.39.38-14.38,3.41-28.11,4.16-42.2-.32-3.46-1.1-7.23-1.21-12.29-2,0,5,.17,8.21,0,11.39-.33,4.87,1.8,6.74,6.63,6.73,36.8-.07,73.59,0,110.39-.18L297,168.69q-55,0-109.94,0c-9.15,0-12.08-6-10-17.16a94.87,94.87,0,0,0,1-26.86l2.12-.22c1.83,6.72,2.12,14.87,4.54,15.55,16,4.55,31.94,8.24,49.25,3.43,10.43-2.89,23-3.17,33.33-.29C281.33,147,294.57,145.6,307.81,142.83Z"/><path class="cls-5" d="M306.27,123l.13,4.77c-14.19,3.39-28.17,2.31-42.64-1.21-8.54-2.08-18.44-1.58-27.09.47-14.61,3.46-28.69,4.34-43.07-.24-3.44-1.09-7.16-1.27-13.49-2.32l-2.12.22c-.26-2.65-.63-5.28-1.09-7.91-1.7-9.68.08-14.19,7.19-17.09,19.75-8,39.24-16.73,59-24.69,5.37-2.16,8.38-5.12,9.21-10.78a31.8,31.8,0,0,1,1-4.83c2-6.69,4.5-11.29,7.94-14.11l3.43,3.52c-3.3,2.72-5.73,7.46-7.4,14.37-.56,2.34-.84,4.75-1,5.58-.31,12.75,5,20,13.6,18a60.05,60.05,0,0,0,21.4-10.16,5.69,5.69,0,0,0,.91-.87l.29.22,4.12,6.19c-2-.4-4.14.25-6.75,2.2a41.19,41.19,0,0,1-13.12,6c-11.49,3.31-17.38,1.16-23.76-9.14-2.84-4.57-5.64-3-8.83-1.63Q224,88,203.94,96.56c-2,.85-3.67,2.29-7.46,4.7H304v.21l.52,5.57H251.8v0c-21.32,0-42.64-.12-64,.19-2.09,0-5.84,2.67-5.86,4.15,0,2.78,1.48,7.51,3.38,8.1,16.27,5.08,32.45,8.58,49.85,3.07,8.56-2.72,19.1-3.43,27.66-1.08A88.28,88.28,0,0,0,306.27,123Z"/><path class="cls-7" d="M264.67,48.76a12.26,12.26,0,0,1,8-2.77c9.88-.07,20.76,7.94,22.21,17.82.54,3.68-.41,9.23-2.64,11.91a5.69,5.69,0,0,1-.91.87,60.05,60.05,0,0,1-21.4,10.16c-8.61,2-13.91-5.29-13.6-18,.14-.83.42-3.24,1-5.58C258.94,56.22,261.37,51.48,264.67,48.76Z"/><path class="cls-8" d="M288,44.15c3.59.34,6.31-6.89,11.8-2.8-.22,1.62-3.43,5.47-5.23,7.58l1.17,3.28c1.38,8.23,2.75,13.63,4.53,21.77.58,2.67,2.22,5.82,4.37,7.3,19.27,13.27,25,31.63,21.88,54-1.07,7.69-.12,15.65-.31,23.49-.16,6.5-3.61,9.89-10.23,9.89H297q-55,0-109.94,0c-9.15,0-12.08-6-10-17.16a94.87,94.87,0,0,0,1-26.86c-.26-2.65-.63-5.28-1.09-7.91-1.7-9.68.08-14.19,7.19-17.09,19.75-8,39.24-16.73,59-24.69,5.37-2.16,8.38-5.12,9.21-10.78a31.8,31.8,0,0,1,1-4.83c2-6.69,4.5-11.29,7.94-14.11,3.75-3.09,8.6-4.08,15.12-3.39,3.73.4,5.64,1.17,9.46,1.53"/><path class="cls-8" d="M180.11,124.43c1.83,6.72,2.12,14.87,4.54,15.55,16,4.55,31.94,8.24,49.25,3.43,10.43-2.89,23-3.17,33.33-.29,14.1,3.9,27.34,2.48,40.58-.29,3.46-.71,6.92-1.53,10.4-2.36,1.42-.34,3.34-2.41,3.42-3.77.2-3.39.48-7.54-1.25-10-1.05-1.51-6-1.28-8.77-.41q-2.61.83-5.21,1.43c-14.19,3.39-28.17,2.31-42.64-1.21-8.54-2.08-18.44-1.58-27.09.47-14.61,3.46-28.69,4.34-43.07-.24C190.16,125.66,186.44,125.48,180.11,124.43Z"/><path class="cls-8" d="M304.49,107H251.8v0c-21.32,0-42.64-.12-64,.19-2.09,0-5.84,2.67-5.86,4.15,0,2.78,1.48,7.51,3.38,8.1,16.27,5.08,32.45,8.58,49.85,3.07,8.56-2.72,19.1-3.43,27.66-1.08a88.28,88.28,0,0,0,43.4,1.45c3-.66,5.94-1.47,8.93-2.44,4.44-1.44,7.24-2.62,6.85-7.87-.45-6.06-4.6-5.61-8.72-5.61Z"/><path class="cls-8" d="M306.1,148.32c-13.58,3.51-26.79,2.52-40.67-.84-9.28-2.25-20-1.84-29.39.38-14.38,3.41-28.11,4.16-42.2-.32-3.46-1.1-7.23-1.21-12.29-2,0,5,.17,8.21,0,11.39-.33,4.87,1.8,6.74,6.63,6.73,36.8-.07,73.59,0,110.39-.18q8.43,0,16.86-.11c2.28,0,6-3.51,6.52-5.9,2.12-10.52-1.4-13.65-12-10.27C308.67,147.61,307.39,148,306.1,148.32Z"/><path class="cls-8" d="M304,101.26h12.75C310.79,95.08,306.28,90.7,302.14,86c-1.85-2.11-3.61-3.48-5.53-3.86s-4.14.25-6.75,2.2a41.19,41.19,0,0,1-13.12,6c-11.49,3.31-17.38,1.16-23.76-9.14-2.84-4.57-5.64-3-8.83-1.63Q224,88,203.94,96.56c-2,.85-3.67,2.29-7.46,4.7Z"/><path class="cls-8" d="M264.67,48.76c-3.3,2.72-5.73,7.46-7.4,14.37-.56,2.34-.84,4.75-1,5.58-.31,12.75,5,20,13.6,18a60.05,60.05,0,0,0,21.4-10.16,5.69,5.69,0,0,0,.91-.87c2.23-2.68,3.18-8.23,2.64-11.91-1.45-9.88-12.33-17.89-22.21-17.82A12.26,12.26,0,0,0,264.67,48.76Z"/><polyline class="cls-8" points="296.92 168.9 296.98 168.69 298.53 163.48 298.58 163.32"/><polyline class="cls-8" points="261.17 45.17 261.24 45.24 264.67 48.76 264.74 48.83"/><polyline class="cls-8" points="292.49 75.94 296.61 82.13 296.83 82.45"/><polyline class="cls-8" points="303.97 101.47 304.49 107.04 304.49 107.08"/><polyline class="cls-8" points="306.27 122.91 306.27 122.96 306.4 127.73 306.4 127.89"/></svg>